<svg width="27" height="26" viewBox="0 0 27 26" fill="none" xmlns="http://www.w3.org/2000/svg">
<mask id="path-1-inside-1" fill="white">
<path d="M9 7L0 1V25L9 19L3 13L9 7Z"/>
</mask>
<path d="M9 7L0 1V25L9 19L3 13L9 7Z" fill="#181818" fill-opacity="0.8"/>
<path d="M0 1L0.5547 0.16795L-1 -0.868517V1H0ZM9 7L9.70711 7.70711L10.5696 6.84458L9.5547 6.16795L9 7ZM0 25H-1V26.8685L0.5547 25.8321L0 25ZM9 19L9.5547 19.8321L10.5696 19.1554L9.70711 18.2929L9 19ZM3 13L2.29289 12.2929L1.58579 13L2.29289 13.7071L3 13ZM-0.5547 1.83205L8.4453 7.83205L9.5547 6.16795L0.5547 0.16795L-0.5547 1.83205ZM1 25V1H-1V25H1ZM8.4453 18.1679L-0.5547 24.1679L0.5547 25.8321L9.5547 19.8321L8.4453 18.1679ZM8.29289 6.29289L2.29289 12.2929L3.70711 13.7071L9.70711 7.70711L8.29289 6.29289ZM2.29289 13.7071L8.29289 19.7071L9.70711 18.2929L3.70711 12.2929L2.29289 13.7071Z" fill="#F2F2F2" mask="url(#path-1-inside-1)"/>
<path d="M14.3536 1.64645L14 1.29289L13.6464 1.64645L2.64645 12.6464L2.29289 13L2.64645 13.3536L13.6464 24.3536L14 24.7071L14.3536 24.3536L25.3536 13.3536L25.7071 13L25.3536 12.6464L14.3536 1.64645Z" fill="#181818" fill-opacity="0.8" stroke="#F2F2F2"/>
</svg>
