<svg width="27" height="26" viewBox="0 0 27 26" fill="none" xmlns="http://www.w3.org/2000/svg">
<path d="M9 7L0 1V25L9 19L14 24L25 13L14 2L9 7Z" fill="#F2F2F2"/>
<path d="M14.3536 1.64645L14 1.29289L13.6464 1.64645L2.64645 12.6464L2.29289 13L2.64645 13.3536L13.6464 24.3536L14 24.7071L14.3536 24.3536L25.3536 13.3536L25.7071 13L25.3536 12.6464L14.3536 1.64645Z" fill="#181818" fill-opacity="0.8" stroke="#F2F2F2"/>
<path d="M18.4734 9.80667C18.4114 9.74418 18.3376 9.69458 18.2564 9.66074C18.1752 9.62689 18.088 9.60947 18 9.60947C17.912 9.60947 17.8249 9.62689 17.7436 9.66074C17.6624 9.69458 17.5887 9.74418 17.5267 9.80667L12.56 14.78L10.4734 12.6867C10.409 12.6245 10.333 12.5756 10.2498 12.5428C10.1666 12.51 10.0777 12.4939 9.98824 12.4955C9.89878 12.497 9.81051 12.5162 9.72846 12.5518C9.64641 12.5875 9.57218 12.639 9.51002 12.7033C9.44786 12.7677 9.39899 12.8436 9.36618 12.9269C9.33338 13.0101 9.3173 13.099 9.31884 13.1885C9.32039 13.2779 9.33954 13.3662 9.3752 13.4482C9.41087 13.5303 9.46234 13.6045 9.52669 13.6667L12.0867 16.2267C12.1487 16.2892 12.2224 16.3387 12.3036 16.3726C12.3849 16.4064 12.472 16.4239 12.56 16.4239C12.648 16.4239 12.7352 16.4064 12.8164 16.3726C12.8976 16.3387 12.9714 16.2892 13.0334 16.2267L18.4734 10.7867C18.541 10.7242 18.595 10.6485 18.632 10.5641C18.6689 10.4798 18.688 10.3887 18.688 10.2967C18.688 10.2046 18.6689 10.1135 18.632 10.0292C18.595 9.94486 18.541 9.86909 18.4734 9.80667V9.80667Z" fill="#F2F2F2"/>
</svg>
